<svg width="152" height="40" viewBox="0 0 152 40" fill="none" xmlns="http://www.w3.org/2000/svg">
<path d="M39.2506 0.534243L39.9956 5.38275C40.0058 5.46841 39.9984 5.55524 39.9739 5.63794C39.9493 5.72064 39.9082 5.79747 39.853 5.86376C39.7978 5.93004 39.7297 5.98439 39.6528 6.02348C39.576 6.06257 39.4919 6.08559 39.4058 6.09112L28.064 7.24821C27.9056 7.25997 27.7572 7.32989 27.6473 7.44451C27.5374 7.55913 27.4737 7.71036 27.4686 7.86909V11.854C27.4598 12.021 27.3867 12.178 27.2647 12.2922C27.1426 12.4064 26.981 12.4688 26.8138 12.4664H13.2059C13.0366 12.4726 12.8718 12.4117 12.7471 12.2971C12.6224 12.1824 12.548 12.0232 12.5399 11.854V7.86909C12.5348 7.71036 12.4711 7.55913 12.3612 7.44451C12.2513 7.32989 12.1028 7.25997 11.9445 7.24821L0.59982 6.09112C0.513256 6.08632 0.428591 6.06385 0.351044 6.02508C0.273496 5.98631 0.204709 5.93207 0.148921 5.86571C0.0931332 5.79934 0.0515268 5.72225 0.0266659 5.63919C0.00180505 5.55613 -0.00578361 5.46886 0.00436761 5.38275L0.755033 0.534243C0.783273 0.381122 0.865382 0.243166 0.986505 0.145331C1.10763 0.0474969 1.25976 -0.00375387 1.41539 0.000850925H11.8711C11.956 -0.0021663 12.0406 0.0115782 12.1202 0.0412984C12.1997 0.0710186 12.2727 0.116132 12.3348 0.174058C12.3969 0.231984 12.447 0.301587 12.4822 0.378886C12.5174 0.456186 12.537 0.539666 12.5399 0.624553V3.24636C12.5458 3.41729 12.6192 3.57892 12.7441 3.69583C12.8689 3.81274 13.035 3.87539 13.2059 3.87006H26.8138C26.8987 3.87308 26.9834 3.85934 27.0629 3.82962C27.1425 3.7999 27.2154 3.75478 27.2775 3.69686C27.3397 3.63893 27.3897 3.56933 27.4249 3.49203C27.4601 3.41473 27.4798 3.33125 27.4827 3.24636V0.624553C27.4886 0.456111 27.56 0.296631 27.6818 0.180118C27.8036 0.063604 27.966 -0.000723699 28.1346 0.000850925H38.5761C38.7341 -0.00722748 38.8897 0.0424313 39.0138 0.140569C39.1379 0.238708 39.2221 0.378627 39.2506 0.534243Z" fill="currentColor"/>
<path opacity="0.8" d="M39.2506 14.3009L39.9956 19.1494C40.0058 19.2351 39.9984 19.3219 39.9739 19.4046C39.9493 19.4873 39.9082 19.5641 39.853 19.6304C39.7978 19.6967 39.7297 19.751 39.6528 19.7901C39.576 19.8292 39.4919 19.8522 39.4058 19.8578L28.064 21.0149C27.9054 21.026 27.7566 21.0957 27.6466 21.2105C27.5365 21.3252 27.4731 21.4768 27.4686 21.6357V25.6122C27.4656 25.7831 27.395 25.9459 27.2723 26.0649C27.1496 26.1839 26.9848 26.2494 26.8138 26.2472H13.2059C13.1214 26.2502 13.0371 26.2365 12.9579 26.207C12.8787 26.1774 12.8061 26.1325 12.7442 26.0748C12.6824 26.0171 12.6325 25.9478 12.5974 25.8709C12.5624 25.7939 12.5428 25.7108 12.5399 25.6263V21.6357C12.5354 21.4768 12.472 21.3252 12.3619 21.2105C12.2519 21.0957 12.1031 21.026 11.9445 21.0149L0.59982 19.8578C0.513256 19.853 0.428591 19.8305 0.351044 19.7917C0.273496 19.753 0.204709 19.6987 0.148921 19.6323C0.0931332 19.566 0.0515268 19.4889 0.0266659 19.4058C0.00180505 19.3228 -0.00578361 19.2355 0.00436761 19.1494L0.755033 14.3009C0.783273 14.1478 0.865382 14.0098 0.986505 13.912C1.10763 13.8141 1.25976 13.7629 1.41539 13.7675H11.8711C11.9562 13.7645 12.0411 13.7783 12.1208 13.8082C12.2006 13.8381 12.2736 13.8835 12.3358 13.9417C12.3979 13.9999 12.4479 14.0699 12.483 14.1475C12.518 14.2251 12.5374 14.3089 12.5399 14.394V17.0158C12.5428 17.1003 12.5624 17.1835 12.5974 17.2604C12.6325 17.3374 12.6824 17.4067 12.7442 17.4643C12.8061 17.522 12.8787 17.5669 12.9579 17.5965C13.0371 17.6261 13.1214 17.6397 13.2059 17.6367H26.8138C26.9848 17.6428 27.1512 17.5809 27.2766 17.4645C27.4019 17.3481 27.4761 17.1868 27.4827 17.0158V14.394C27.4886 14.2231 27.562 14.0615 27.6868 13.9445C27.8116 13.8276 27.9777 13.765 28.1487 13.7703H38.5903C38.7455 13.7656 38.8973 13.8165 39.0184 13.9137C39.1394 14.011 39.2218 14.1483 39.2506 14.3009Z" fill="currentColor"/>
<path opacity="0.6" d="M39.2506 28.0675L39.9956 32.916C40.0058 33.0017 39.9984 33.0885 39.9739 33.1712C39.9493 33.2539 39.9082 33.3307 39.853 33.397C39.7978 33.4633 39.7297 33.5176 39.6528 33.5567C39.576 33.5958 39.4919 33.6188 39.4058 33.6244L28.064 34.7815C27.9059 34.7926 27.7575 34.8619 27.6475 34.976C27.5375 35.0902 27.4738 35.2411 27.4686 35.3995V39.3788C27.4619 39.5497 27.3878 39.7111 27.2625 39.8275C27.1371 39.9439 26.9707 40.0058 26.7997 39.9997H13.2059C13.0354 40.005 12.8698 39.9428 12.745 39.8264C12.6203 39.7101 12.5465 39.5492 12.5399 39.3788V35.3995C12.5347 35.2411 12.471 35.0902 12.361 34.976C12.251 34.8619 12.1026 34.7926 11.9445 34.7815L0.59982 33.6244C0.513256 33.6196 0.428591 33.5971 0.351044 33.5583C0.273496 33.5196 0.204709 33.4653 0.148921 33.399C0.0931332 33.3326 0.0515268 33.2555 0.0266659 33.1724C0.00180505 33.0894 -0.00578361 33.0021 0.00436761 32.916L0.755033 28.0675C0.783273 27.9144 0.865382 27.7764 0.986505 27.6786C1.10763 27.5807 1.25976 27.5295 1.41539 27.5341H11.8711C11.956 27.5311 12.0406 27.5448 12.1202 27.5745C12.1997 27.6043 12.2727 27.6494 12.3348 27.7073C12.3969 27.7652 12.447 27.8348 12.4822 27.9121C12.5174 27.9894 12.537 28.0729 12.5399 28.1578V30.7796C12.5428 30.8641 12.5624 30.9472 12.5974 31.0242C12.6325 31.1012 12.6824 31.1704 12.7442 31.2281C12.8061 31.2858 12.8787 31.3307 12.9579 31.3603C13.0371 31.3898 13.1214 31.4035 13.2059 31.4005H26.8138C26.9848 31.4066 27.1512 31.3447 27.2766 31.2283C27.4019 31.1119 27.4761 30.9506 27.4827 30.7796V28.1578C27.4886 27.9869 27.562 27.8252 27.6868 27.7083C27.8116 27.5914 27.9777 27.5288 28.1487 27.5341H38.5903C38.7459 27.5295 38.898 27.5807 39.0191 27.6786C39.1403 27.7764 39.2224 27.9144 39.2506 28.0675Z" fill="currentColor"/>
<path d="M56.784 4.56H62.336C63.552 4.56 64.5013 4.87467 65.184 5.504C65.8667 6.12267 66.208 7.024 66.208 8.208C66.208 9.392 65.8667 10.2987 65.184 10.928C64.5013 11.5467 63.552 11.856 62.336 11.856H59.664V16H56.784V4.56ZM59.664 9.504H61.728C62.2507 9.504 62.6453 9.40267 62.912 9.2C63.1893 8.99733 63.328 8.66667 63.328 8.208C63.328 7.74933 63.1893 7.41867 62.912 7.216C62.6453 7.01333 62.2507 6.912 61.728 6.912H59.664V9.504ZM71.6535 7.664C71.9308 7.664 72.1655 7.68533 72.3575 7.728V9.968H72.3255C72.1655 9.936 72.0002 9.92 71.8295 9.92C71.2215 9.92 70.6988 10.1173 70.2615 10.512C69.8348 10.9067 69.6215 11.4667 69.6215 12.192V16H67.0615V7.808H69.6215V9.152H69.6535C69.8562 8.68267 70.1282 8.32 70.4695 8.064C70.8215 7.79733 71.2162 7.664 71.6535 7.664ZM77.7841 10.08C77.7841 9.83467 77.6935 9.648 77.5121 9.52C77.3415 9.38133 77.0855 9.312 76.7441 9.312C76.2855 9.312 75.9388 9.40267 75.7041 9.584C75.4695 9.76533 75.3308 10.0533 75.2881 10.448H72.8881C72.9308 9.59467 73.2721 8.90133 73.9121 8.368C74.5521 7.824 75.5015 7.552 76.7601 7.552C77.9548 7.552 78.8508 7.81867 79.4481 8.352C80.0455 8.88533 80.3441 9.776 80.3441 11.024V14.784C80.3441 14.9973 80.3815 15.152 80.4561 15.248C80.5415 15.344 80.6641 15.392 80.8241 15.392V16C80.3655 16.1707 79.8695 16.256 79.3361 16.256C78.8028 16.256 78.4241 16.1547 78.2001 15.952C77.9761 15.7387 77.8641 15.4667 77.8641 15.136H77.8321C77.5548 15.456 77.1868 15.7227 76.7281 15.936C76.2695 16.1493 75.7788 16.256 75.2561 16.256C74.4135 16.256 73.7521 16.0427 73.2721 15.616C72.8028 15.1787 72.5681 14.608 72.5681 13.904C72.5681 13.1253 72.8295 12.5227 73.3521 12.096C73.8855 11.6587 74.6641 11.3387 75.6881 11.136C76.2108 11.0293 76.5948 10.944 76.8401 10.88C77.0961 10.816 77.3148 10.72 77.4961 10.592C77.6881 10.464 77.7841 10.2933 77.7841 10.08ZM76.1521 14.496C76.6748 14.496 77.0748 14.352 77.3521 14.064C77.6401 13.776 77.7841 13.424 77.7841 13.008V12.016C77.4748 12.1333 77.0375 12.256 76.4721 12.384C75.5761 12.5867 75.1281 12.9707 75.1281 13.536C75.1281 14.176 75.4695 14.496 76.1521 14.496ZM84.3239 7.808L85.6359 10.176H85.6679L86.9799 7.808H89.6999L87.2039 11.824L90.0199 16H87.1399L85.6679 13.472H85.6359L84.1639 16H81.2839L84.0999 11.824L81.6039 7.808H84.3239ZM92.029 6.832C91.6557 6.832 91.3463 6.736 91.101 6.544C90.8663 6.34133 90.749 6.05867 90.749 5.696C90.749 5.344 90.8663 5.06667 91.101 4.864C91.3463 4.66133 91.6557 4.56 92.029 4.56C92.4023 4.56 92.7063 4.66133 92.941 4.864C93.1863 5.06667 93.309 5.344 93.309 5.696C93.309 6.05867 93.1863 6.34133 92.941 6.544C92.7063 6.736 92.4023 6.832 92.029 6.832ZM93.309 7.808V16H90.749V7.808H93.309ZM98.5615 10.832C99.5642 11.056 100.348 11.3653 100.914 11.76C101.49 12.144 101.778 12.752 101.778 13.584C101.778 14.448 101.463 15.1093 100.834 15.568C100.215 16.0267 99.3348 16.256 98.1935 16.256C96.8068 16.256 95.7828 15.984 95.1215 15.44C94.4602 14.896 94.1082 14.176 94.0655 13.28H96.4655C96.5402 14.0907 97.0842 14.496 98.0975 14.496C98.4602 14.496 98.7375 14.4373 98.9295 14.32C99.1215 14.2027 99.2175 14.0267 99.2175 13.792C99.2175 13.504 99.0895 13.296 98.8335 13.168C98.5775 13.04 98.1295 12.912 97.4895 12.784L97.1535 12.704C96.2682 12.512 95.5588 12.2347 95.0255 11.872C94.4922 11.5093 94.2255 10.944 94.2255 10.176C94.2255 9.67467 94.3642 9.22667 94.6415 8.832C94.9295 8.43733 95.3402 8.128 95.8735 7.904C96.4175 7.66933 97.0628 7.552 97.8095 7.552C99.0362 7.552 99.9535 7.81333 100.562 8.336C101.17 8.85867 101.495 9.52 101.538 10.32H99.1375C99.0948 9.97867 98.9722 9.728 98.7695 9.568C98.5775 9.39733 98.2788 9.312 97.8735 9.312C97.5215 9.312 97.2495 9.37067 97.0575 9.488C96.8762 9.60533 96.7855 9.76533 96.7855 9.968C96.7855 10.192 96.8708 10.352 97.0415 10.448C97.2228 10.5333 97.5748 10.6293 98.0975 10.736L98.5615 10.832ZM110.319 8.896C111.236 9.152 111.993 9.41333 112.591 9.68C113.199 9.936 113.7 10.304 114.095 10.784C114.5 11.264 114.703 11.8827 114.703 12.64C114.703 13.3653 114.521 14 114.159 14.544C113.807 15.088 113.289 15.5093 112.607 15.808C111.924 16.1067 111.113 16.256 110.175 16.256C109.172 16.256 108.276 16.096 107.487 15.776C106.697 15.456 106.079 14.9973 105.631 14.4C105.183 13.792 104.959 13.072 104.959 12.24H107.839C107.839 12.816 108.052 13.2373 108.479 13.504C108.916 13.7707 109.481 13.904 110.175 13.904C110.697 13.904 111.103 13.8133 111.391 13.632C111.679 13.4507 111.823 13.2107 111.823 12.912C111.823 12.6667 111.732 12.464 111.551 12.304C111.369 12.1333 111.135 11.9947 110.847 11.888C110.559 11.7707 110.143 11.6373 109.599 11.488L108.975 11.312C107.812 10.9707 106.905 10.5387 106.255 10.016C105.604 9.48267 105.279 8.736 105.279 7.776C105.279 6.592 105.684 5.71733 106.495 5.152C107.305 4.58667 108.372 4.304 109.695 4.304C110.591 4.304 111.401 4.45867 112.127 4.768C112.852 5.06667 113.428 5.49867 113.855 6.064C114.292 6.61867 114.521 7.27467 114.543 8.032H111.663C111.599 7.60533 111.391 7.26933 111.039 7.024C110.697 6.77867 110.249 6.656 109.695 6.656C109.236 6.656 108.863 6.73067 108.575 6.88C108.297 7.02933 108.159 7.25867 108.159 7.568C108.159 7.888 108.313 8.13333 108.623 8.304C108.932 8.47467 109.497 8.672 110.319 8.896ZM121.076 10.864C121.034 10.4693 120.895 10.1387 120.66 9.872C120.436 9.60533 120.09 9.472 119.62 9.472C119.098 9.472 118.692 9.68533 118.404 10.112C118.116 10.5387 117.972 11.136 117.972 11.904C117.972 12.6827 118.111 13.2853 118.388 13.712C118.676 14.128 119.087 14.336 119.62 14.336C120.484 14.336 120.97 13.8613 121.076 12.912H123.588C123.546 13.5627 123.359 14.144 123.028 14.656C122.698 15.1573 122.239 15.552 121.652 15.84C121.076 16.1173 120.404 16.256 119.636 16.256C118.783 16.256 118.036 16.0747 117.396 15.712C116.767 15.3387 116.276 14.8267 115.924 14.176C115.583 13.5147 115.412 12.7573 115.412 11.904C115.412 11.0613 115.583 10.3093 115.924 9.648C116.266 8.98667 116.751 8.47467 117.38 8.112C118.01 7.73867 118.74 7.552 119.572 7.552C120.735 7.552 121.668 7.86133 122.372 8.48C123.076 9.088 123.482 9.88267 123.588 10.864H121.076ZM129.557 7.552C130.432 7.552 131.114 7.808 131.605 8.32C132.106 8.82133 132.357 9.536 132.357 10.464V16H129.797V11.28C129.797 10.672 129.69 10.2453 129.477 10C129.274 9.75467 128.938 9.632 128.469 9.632C128.032 9.632 127.674 9.77067 127.397 10.048C127.12 10.3147 126.981 10.72 126.981 11.264V16H124.421V4.56H126.981V8.992H127.013C127.258 8.56533 127.589 8.21867 128.005 7.952C128.432 7.68533 128.949 7.552 129.557 7.552ZM139.882 15.712C139.221 16.0747 138.447 16.256 137.562 16.256C136.666 16.256 135.887 16.0747 135.226 15.712C134.565 15.3387 134.058 14.8267 133.706 14.176C133.354 13.5147 133.178 12.7573 133.178 11.904C133.178 11.0507 133.354 10.2987 133.706 9.648C134.058 8.98667 134.565 8.47467 135.226 8.112C135.887 7.73867 136.666 7.552 137.562 7.552C138.447 7.552 139.221 7.73867 139.882 8.112C140.543 8.47467 141.05 8.98667 141.402 9.648C141.754 10.3093 141.93 11.0613 141.93 11.904C141.93 12.7467 141.754 13.4987 141.402 14.16C141.05 14.8213 140.543 15.3387 139.882 15.712ZM136.218 13.712C136.538 14.128 136.986 14.336 137.562 14.336C138.127 14.336 138.57 14.128 138.89 13.712C139.21 13.2853 139.37 12.6827 139.37 11.904C139.37 11.1253 139.21 10.528 138.89 10.112C138.57 9.68533 138.127 9.472 137.562 9.472C136.986 9.472 136.538 9.68533 136.218 10.112C135.898 10.528 135.738 11.1253 135.738 11.904C135.738 12.6827 135.898 13.2853 136.218 13.712ZM134.954 4.736C134.73 4.97067 134.618 5.25867 134.618 5.6C134.618 5.94133 134.725 6.22933 134.938 6.464C135.162 6.69867 135.466 6.816 135.85 6.816C136.223 6.816 136.517 6.69867 136.73 6.464C136.954 6.22933 137.066 5.94133 137.066 5.6C137.066 5.25867 136.954 4.97067 136.73 4.736C136.517 4.50133 136.223 4.384 135.85 4.384C135.477 4.384 135.178 4.50133 134.954 4.736ZM138.394 4.736C138.17 4.97067 138.058 5.25867 138.058 5.6C138.058 5.94133 138.165 6.22933 138.378 6.464C138.602 6.69867 138.906 6.816 139.29 6.816C139.663 6.816 139.957 6.69867 140.17 6.464C140.394 6.22933 140.506 5.94133 140.506 5.6C140.506 5.25867 140.394 4.97067 140.17 4.736C139.957 4.50133 139.663 4.384 139.29 4.384C138.917 4.384 138.618 4.50133 138.394 4.736ZM148.092 7.552C148.902 7.552 149.548 7.808 150.028 8.32C150.508 8.832 150.748 9.54667 150.748 10.464V16H148.188V11.28C148.188 10.6827 148.081 10.2613 147.868 10.016C147.665 9.76 147.345 9.632 146.908 9.632C145.884 9.632 145.372 10.176 145.372 11.264V16H142.812V7.808H145.372V8.992H145.404C145.958 8.032 146.854 7.552 148.092 7.552Z" fill="currentColor"/>
<path d="M65.36 28.336C65.2213 27.632 64.88 27.0027 64.336 26.448C63.8027 25.8933 63.0027 25.616 61.936 25.616C61.072 25.616 60.352 25.8347 59.776 26.272C59.2 26.7093 58.7733 27.2853 58.496 28C58.2187 28.704 58.08 29.4613 58.08 30.272C58.08 31.0933 58.2187 31.8613 58.496 32.576C58.7733 33.28 59.2 33.8507 59.776 34.288C60.352 34.7253 61.072 34.944 61.936 34.944C62.6933 34.944 63.3227 34.7947 63.824 34.496C64.3253 34.1973 64.6987 33.8187 64.944 33.36C65.1893 32.8907 65.328 32.3947 65.36 31.872H66.8C66.7147 32.7147 66.464 33.4667 66.048 34.128C65.632 34.7893 65.072 35.3067 64.368 35.68C63.664 36.0427 62.8533 36.224 61.936 36.224C60.9013 36.224 59.984 35.968 59.184 35.456C58.384 34.944 57.76 34.24 57.312 33.344C56.864 32.4373 56.64 31.4133 56.64 30.272C56.64 29.1307 56.864 28.112 57.312 27.216C57.76 26.3093 58.384 25.6053 59.184 25.104C59.984 24.592 60.9013 24.336 61.936 24.336C62.8427 24.336 63.648 24.5173 64.352 24.88C65.056 25.232 65.616 25.712 66.032 26.32C66.448 26.928 66.704 27.6 66.8 28.336H65.36ZM72.2238 27.616C73.0238 27.616 73.6798 27.8453 74.1918 28.304C74.7038 28.752 74.9598 29.4187 74.9598 30.304V36H73.6798V30.624C73.6798 30.0587 73.5358 29.6053 73.2478 29.264C72.9598 28.912 72.5118 28.736 71.9038 28.736C71.1891 28.736 70.6078 28.9387 70.1598 29.344C69.7224 29.7493 69.5038 30.272 69.5038 30.912V36H68.2238V24.56H69.5038V28.816H69.5358C69.7918 28.4747 70.1438 28.192 70.5918 27.968C71.0398 27.7333 71.5838 27.616 72.2238 27.616ZM77.4769 26.256C77.2849 26.256 77.1035 26.1867 76.9329 26.048C76.7622 25.9093 76.6769 25.7227 76.6769 25.488C76.6769 25.2533 76.7622 25.0667 76.9329 24.928C77.1035 24.7893 77.2849 24.72 77.4769 24.72C77.6795 24.72 77.8609 24.7893 78.0209 24.928C78.1915 25.0667 78.2769 25.2533 78.2769 25.488C78.2769 25.7227 78.1915 25.9093 78.0209 26.048C77.8609 26.1867 77.6795 26.256 77.4769 26.256ZM78.1169 27.84V36H76.8369V27.84H78.1169ZM83.6043 27.616C83.8816 27.616 84.1323 27.632 84.3563 27.664V28.944H84.3243C84.1536 28.912 83.9883 28.896 83.8283 28.896C83.0816 28.896 82.4736 29.1573 82.0043 29.68C81.5456 30.2027 81.3163 30.8587 81.3163 31.648V36H80.0363V27.84H81.3163V29.456H81.3483C81.5829 28.8693 81.8763 28.416 82.2283 28.096C82.5909 27.776 83.0496 27.616 83.6043 27.616ZM90.8561 35.68C90.2588 36.0427 89.5548 36.224 88.7441 36.224C87.9228 36.224 87.2081 36.0427 86.6001 35.68C86.0028 35.3173 85.5441 34.8107 85.2241 34.16C84.9041 33.5093 84.7441 32.7627 84.7441 31.92C84.7441 31.0773 84.9041 30.3307 85.2241 29.68C85.5441 29.0293 86.0028 28.5227 86.6001 28.16C87.2081 27.7973 87.9228 27.616 88.7441 27.616C89.5548 27.616 90.2588 27.7973 90.8561 28.16C91.4641 28.5227 91.9281 29.0293 92.2481 29.68C92.5681 30.3307 92.7281 31.0773 92.7281 31.92C92.7281 32.7627 92.5681 33.5093 92.2481 34.16C91.9281 34.8107 91.4641 35.3173 90.8561 35.68ZM86.7281 34.208C87.1975 34.8053 87.8695 35.104 88.7441 35.104C89.6188 35.104 90.2855 34.8053 90.7441 34.208C91.2135 33.6107 91.4481 32.848 91.4481 31.92C91.4481 30.992 91.2135 30.2293 90.7441 29.632C90.2855 29.0347 89.6188 28.736 88.7441 28.736C87.8695 28.736 87.1975 29.0347 86.7281 29.632C86.2588 30.2293 86.0241 30.992 86.0241 31.92C86.0241 32.848 86.2588 33.6107 86.7281 34.208ZM94.0206 27.84H95.3006V28.848H95.3326C95.962 28.0267 96.826 27.616 97.9246 27.616C98.5966 27.616 99.21 27.792 99.7646 28.144C100.319 28.4853 100.757 28.9813 101.077 29.632C101.407 30.2827 101.573 31.0453 101.573 31.92C101.573 32.7947 101.407 33.5573 101.077 34.208C100.757 34.8587 100.319 35.36 99.7646 35.712C99.21 36.0533 98.5966 36.224 97.9246 36.224C96.7833 36.224 95.9193 35.7973 95.3326 34.944H95.3006V38.752H94.0206V27.84ZM95.9566 34.24C96.4046 34.816 97.0073 35.104 97.7646 35.104C98.298 35.104 98.7566 34.9547 99.1406 34.656C99.5246 34.3573 99.8126 33.968 100.005 33.488C100.197 32.9973 100.293 32.4747 100.293 31.92C100.293 31.3653 100.197 30.848 100.005 30.368C99.8126 29.8773 99.5246 29.4827 99.1406 29.184C98.7566 28.8853 98.298 28.736 97.7646 28.736C97.0073 28.736 96.4046 29.0293 95.9566 29.616C95.5193 30.192 95.3006 30.96 95.3006 31.92C95.3006 32.88 95.5193 33.6533 95.9566 34.24ZM106.479 27.616C106.757 27.616 107.007 27.632 107.231 27.664V28.944H107.199C107.029 28.912 106.863 28.896 106.703 28.896C105.957 28.896 105.349 29.1573 104.879 29.68C104.421 30.2027 104.191 30.8587 104.191 31.648V36H102.911V27.84H104.191V29.456H104.223C104.458 28.8693 104.751 28.416 105.103 28.096C105.466 27.776 105.925 27.616 106.479 27.616ZM113.075 29.92C113.075 29.1307 112.52 28.736 111.411 28.736C110.643 28.736 110.104 28.8587 109.795 29.104C109.486 29.3493 109.31 29.7707 109.267 30.368H107.987C108.03 29.5253 108.328 28.8587 108.883 28.368C109.438 27.8667 110.28 27.616 111.411 27.616C112.286 27.616 112.995 27.8187 113.539 28.224C114.083 28.6187 114.355 29.2747 114.355 30.192V34.16C114.355 34.48 114.398 34.7147 114.483 34.864C114.579 35.0027 114.766 35.072 115.043 35.072C115.139 35.072 115.219 35.0667 115.283 35.056V35.952C115.027 36.0373 114.776 36.08 114.531 36.08C114.126 36.08 113.806 36.0053 113.571 35.856C113.347 35.696 113.182 35.4027 113.075 34.976H113.043C112.776 35.3707 112.408 35.68 111.939 35.904C111.48 36.1173 110.926 36.224 110.275 36.224C109.454 36.224 108.798 36.0107 108.307 35.584C107.827 35.1573 107.587 34.5973 107.587 33.904C107.587 33.3067 107.726 32.832 108.003 32.48C108.28 32.128 108.659 31.8613 109.139 31.68C109.63 31.488 110.275 31.3173 111.075 31.168C111.598 31.072 111.992 30.9813 112.259 30.896C112.526 30.8107 112.728 30.6933 112.867 30.544C113.006 30.3947 113.075 30.1867 113.075 29.92ZM110.403 35.104C111.203 35.104 111.848 34.9173 112.339 34.544C112.83 34.16 113.075 33.5947 113.075 32.848V31.488C112.862 31.7013 112.232 31.9147 111.187 32.128C110.355 32.3093 109.758 32.5227 109.395 32.768C109.043 33.0133 108.867 33.3707 108.867 33.84C108.867 34.6827 109.379 35.104 110.403 35.104ZM117.519 24.56V31.344L121.263 27.84H122.863L119.679 30.864L123.199 36H121.679L118.783 31.616L117.519 32.784V36H116.239V24.56H117.519ZM125.863 28.96V33.872C125.863 34.256 125.954 34.5227 126.135 34.672C126.317 34.8213 126.615 34.896 127.031 34.896C127.213 34.896 127.357 34.8907 127.463 34.88V36C127.175 36.064 126.855 36.096 126.503 36.096C125.895 36.096 125.421 35.9413 125.079 35.632C124.749 35.3227 124.583 34.7787 124.583 34V28.96H123.383V27.84H124.583V25.12H125.863V27.84H127.463V28.96H125.863ZM129.602 26.256C129.41 26.256 129.229 26.1867 129.058 26.048C128.887 25.9093 128.802 25.7227 128.802 25.488C128.802 25.2533 128.887 25.0667 129.058 24.928C129.229 24.7893 129.41 24.72 129.602 24.72C129.805 24.72 129.986 24.7893 130.146 24.928C130.317 25.0667 130.402 25.2533 130.402 25.488C130.402 25.7227 130.317 25.9093 130.146 26.048C129.986 26.1867 129.805 26.256 129.602 26.256ZM130.242 27.84V36H128.962V27.84H130.242ZM133.285 24.56V31.344L137.029 27.84H138.629L135.445 30.864L138.965 36H137.445L134.549 31.616L133.285 32.784V36H132.005V24.56H133.285Z" fill="currentColor"/>
</svg>
