<svg preserveAspectRatio="none" width="100%" height="100%" overflow="visible" style="display: block;" viewBox="0 0 32 32" fill="none" xmlns="http://www.w3.org/2000/svg">
<g id="alert-circle">
<path id="Vector" d="M16 1.66667C23.9161 1.66667 30.3333 8.08392 30.3333 16C30.3333 23.9161 23.9161 30.3333 16 30.3333C8.08392 30.3333 1.66667 23.9161 1.66667 16C1.66667 8.08392 8.08392 1.66667 16 1.66667ZM16 19.6667C15.2636 19.6667 14.6667 20.2636 14.6667 21C14.6667 21.7364 15.2636 22.3333 16 22.3333C16.7364 22.3333 17.3333 21.7364 17.3333 21C17.3333 20.2636 16.7364 19.6667 16 19.6667ZM16 9.33333C15.2636 9.33333 14.6667 9.93029 14.6667 10.6667V16C14.6667 16.7364 15.2636 17.3333 16 17.3333C16.7364 17.3333 17.3333 16.7364 17.3333 16V10.6667C17.3333 9.93029 16.7364 9.33333 16 9.33333Z" fill="var(--fill-0, white)"/>
</g>
</svg>
