<svg preserveAspectRatio="none" width="100%" height="100%" overflow="visible" style="display: block;" viewBox="0 0 16 16" fill="none" xmlns="http://www.w3.org/2000/svg">
<g id="apple">
<path id="Vector" d="M8 4.16667C8 2.83333 9 1.5 10.3333 1.5C10.3333 2.83333 9.33333 4.16667 8 4.16667Z" fill="var(--fill-0, #97A4AC)"/>
<path id="Vector_2" d="M8.33333 5.06001C7.99007 5.06001 7.72447 4.95097 7.4276 4.82912C7.05173 4.67483 6.62583 4.5 5.92889 4.5C4.68157 4.5 2.66667 5.49963 2.66667 8.16633C2.66667 11.2677 4.73647 14.5 6.06981 14.5C6.51617 14.5 6.91833 14.3247 7.30267 14.1573C7.65433 14.0039 7.9912 13.8571 8.33333 13.8571C8.67547 13.8571 9.01233 14.0039 9.364 14.1573C9.74833 14.3247 10.1505 14.5 10.5969 14.5C11.5253 14.5 12.6382 12.9328 13.3333 10.9339C12.2529 10.4801 11.5587 9.412 11.5587 8.16667C11.5587 7.08067 12.1357 6.35988 13 5.83333C12.3333 4.83333 11.3423 4.5 10.6298 4.5C9.93287 4.5 9.50693 4.67483 9.13107 4.82912C8.83427 4.95097 8.6766 5.06001 8.33333 5.06001Z" fill="var(--fill-0, #97A4AC)"/>
</g>
</svg>
