<svg preserveAspectRatio="none" width="100%" height="100%" overflow="visible" style="display: block;" viewBox="0 0 16 16" fill="none" xmlns="http://www.w3.org/2000/svg">
<g id="credit-card">
<path id="Vector" fill-rule="evenodd" clip-rule="evenodd" d="M0.666667 3.83333C0.666667 2.82081 1.48748 2 2.5 2H13.1667C14.1792 2 15 2.82081 15 3.83333V5.33333H0.666667V3.83333ZM0.666667 6.33333H15V11.8333C15 12.8459 14.1792 13.6667 13.1667 13.6667H2.5C1.48748 13.6667 0.666667 12.8459 0.666667 11.8333V6.33333ZM6.5 10C6.22386 10 6 10.2239 6 10.5C6 10.7761 6.22386 11 6.5 11H7.5C7.77613 11 8 10.7761 8 10.5C8 10.2239 7.77613 10 7.5 10H6.5ZM9.5 10C9.22387 10 9 10.2239 9 10.5C9 10.7761 9.22387 11 9.5 11H11.8333C12.1095 11 12.3333 10.7761 12.3333 10.5C12.3333 10.2239 12.1095 10 11.8333 10H9.5Z" fill="var(--fill-0, #97A4AC)"/>
</g>
</svg>
